<?xml version="1.0" encoding="utf-8"?>
<!-- Generator: Adobe Illustrator 18.0.0, SVG Export Plug-In . SVG Version: 6.00 Build 0)  -->
<!DOCTYPE svg PUBLIC "-//W3C//DTD SVG 1.1//EN" "http://www.w3.org/Graphics/SVG/1.1/DTD/svg11.dtd">
<svg version="1.1" id="Layer_1" xmlns="http://www.w3.org/2000/svg" xmlns:xlink="http://www.w3.org/1999/xlink" x="0px" y="0px"
	 viewBox="0 0 851 315" style="enable-background:new 0 0 851 315;" xml:space="preserve">
<g id="text">
	<path id="c" style="fill:#FFFFFF;" d="M163.7,258.6c-8.1,3.9-21.1,6.9-36.3,6.9c-31.7,0-53.9-19.5-53.9-52.8
		c0-45.9,34.8-81.8,83.4-81.8c10.9,0,20.4,2.1,26.1,4.2l-9.5,29.2c-4.5-1.8-9.6-3.1-17.2-3.1c-26.7,0-43.3,22.9-43.3,47.2
		c0,17.7,11.2,26.7,25.1,26.7c10.9,0,18.8-2.7,25.4-5.2L163.7,258.6z"/>
	<path id="u" style="fill:#FFFFFF;" d="M321.7,133.8l-16.2,87c-3.2,16.4-5.2,30.3-6.8,42h-33.1L268,242l-0.5-0.3
		c-13,16.9-28.5,24-44,24c-20.7,0-33-11.6-33-36.2c0-6.9,0.8-14.7,2.6-23.7l13.6-72h37.7l-13.1,69.1c-1.1,6-1.8,12.5-1.8,17.1
		c0,8.2,3.5,14.7,12.8,14.7c12.8,0,26-15.6,30.9-41.1l11.2-59.9H321.7L321.7,133.8z"/>
	<path id="p" style="fill:#FFFFFF;" d="M319.1,315L344,183.6c2.8-15.3,5.7-37.6,7.3-50.9h33.8l-2.4,19.8h0.4
		c10.5-13.9,25.7-21.6,41.1-21.6c27.8,0,41.2,22.3,41.2,49.1c0,44.5-29.5,85.7-74.2,85.7c-10.2,0-19-2.7-23.5-5.2H367L356.8,315
		H319.1z M373,230.8c4.2,3.8,9.6,6,17.2,6c20.1,0,35.8-28.8,35.8-54c0-10.4-4.5-21.1-16.5-21.1c-14.1,0-27.2,15.9-32,41.1L373,230.8
		z"/>
	<path id="i" style="fill:#FFFFFF;" d="M476.5,262.8l24.3-129h37.7l-24.3,129H476.5z"/>
	<path id="r" style="fill:#FFFFFF;" d="M545.8,262.8l14.4-76.8c3.6-19.5,5.2-41.1,6.6-52.2h32.7c-0.8,8.7-1.3,17.4-2.4,26.4h0.8
		c9.2-17.1,23.2-29.2,40.8-29.2c2.4,0,4.6,0,7,0.3l-7.3,36.9c-1.8-0.3-3.9-0.3-6-0.3c-24,0-35.2,21.6-40.1,46.9l-8.8,48H545.8z"/>
	<path id="o" style="fill:#FFFFFF;" d="M777.4,183.9c0,47.3-32.1,81.8-76.4,81.8c-32.4,0-54.1-21.3-54.1-53.6
		c0-44.5,30.9-81.4,76.3-81.4C757.4,130.6,777.4,154.4,777.4,183.9z M685.9,211.7c0,15,7.3,25.1,20.7,25.1
		c20.1,0,31.9-30.6,31.9-52.5c0-11.9-5.2-24.6-20.1-24.6C696.5,159.8,685.9,191.5,685.9,211.7z"/>
</g>
<path id="heart" style="fill:#FFFFFF;" d="M512.7,131c0.1-4.1,0.1-6.3,0.4-8.6c1.3-15-3-28.2-13.1-39.4c-4.6-5.1-9.6-10.1-13.4-15.8
	c-4.2-6.5-8.7-13.5-10.6-20.9c-5.1-19.6,3-36.8,19.1-43.5c16.9-7.2,33.6-1.2,45.4,17c1.5-2.1,3-4,4.4-6C554.2,1.1,565.6-2.1,581.6,2
	c14.4,3.6,23.1,16.5,23.5,31.2c0.5,12.9-3.9,24.1-11.1,34.2C573.7,96.3,544.4,113.9,512.7,131z"/>
</svg>
