<?xml version="1.0" encoding="utf-8"?>
<!-- Generator: Adobe Illustrator 18.0.0, SVG Export Plug-In . SVG Version: 6.00 Build 0)  -->
<!DOCTYPE svg PUBLIC "-//W3C//DTD SVG 1.1//EN" "http://www.w3.org/Graphics/SVG/1.1/DTD/svg11.dtd">
<svg version="1.1" id="Layer_1" xmlns="http://www.w3.org/2000/svg" xmlns:xlink="http://www.w3.org/1999/xlink" x="0px" y="0px"
	 viewBox="0 0 562 555.5" style="enable-background:new 0 0 562 555.5;" xml:space="preserve">
<g>
	<path style="fill:none;stroke:#000000;stroke-width:50;stroke-miterlimit:10;" d="M25,255c0-9,0-18,0-27c0.3-1.3,0.8-2.6,0.9-3.9
		c2.1-24.7,9.1-48,20.7-69.9c25.7-48.5,65.2-81.9,114.7-104.1c48.7-21.8,99.8-29,152.7-23.3c49.3,5.3,94.6,21.6,134.7,51
		c40.9,30,70,68.5,82.7,118.3c2.6,10.4,3.8,21.2,5.7,31.8c0,8.7,0,17.3,0,26c-0.3,1.4-0.7,2.9-0.9,4.3c-1.6,9.3-2.6,18.8-4.9,28
		c-12.4,48.3-40.1,86.5-79.8,115.7c-66.4,48.8-141.1,63.1-221.7,50.7c-2.5-0.4-5.7,0.2-7.9,1.5c-31.7,18.4-63.3,36.9-94.9,55.4
		c-1.7,1-3.4,1.9-5.5,3.1c0-2.2-0.1-3.8,0-5.4c2.2-29.4,4.3-58.8,6.6-88.2c0.3-3.6-0.9-5.5-3.9-7.6c-9.2-6.5-18.6-13.1-27.1-20.5
		c-33.8-29.5-57.4-65.4-67.5-109.5C27.6,272.8,26.5,263.8,25,255z"/>
</g>
</svg>
