<?xml version="1.0" encoding="utf-8"?>
<!-- Generator: Adobe Illustrator 18.0.0, SVG Export Plug-In . SVG Version: 6.00 Build 0)  -->
<!DOCTYPE svg PUBLIC "-//W3C//DTD SVG 1.1//EN" "http://www.w3.org/Graphics/SVG/1.1/DTD/svg11.dtd">
<svg version="1.1" id="google" xmlns="http://www.w3.org/2000/svg" xmlns:xlink="http://www.w3.org/1999/xlink" x="0px" y="0px"
	 viewBox="0 0 150.1 156.5" enable-background="new 0 0 150.1 156.5" xml:space="preserve">
<path display="none" fill="none" stroke="#231F20" stroke-miterlimit="10" d="M515.2,176.8c0,5.5-4.5,10-10,10H-86.5
	c-5.5,0-10-4.5-10-10V-20.1c0-5.5,4.5-10,10-10h591.7c5.5,0,10,4.5,10,10V176.8z"/>
<text transform="matrix(1 0 0 1 175.8164 110.367)" display="none"><tspan x="0" y="0" display="inline" font-family="'Catull'" font-size="48">Google </tspan><tspan x="160.9" y="0" display="inline" font-family="'Roboto-Light'" font-size="48">play</tspan></text>
<text transform="matrix(1 0 0 1 175.8166 41.01)" display="none" font-family="'Roboto-Regular'" font-size="24.6068">GET IT ON</text>
<g>
	<path fill="#231F20" d="M11.4,156.3c3.7,0.7,8.2-0.2,12.9-2.7l82.9-44.6l-24.1-24L11.4,156.3z"/>
	<path fill="#231F20" d="M3.3,5.5c-2.1,2.9-3.3,7-3.3,12V139c0,4.9,1.1,8.8,3.1,11.8L76.2,78L3.3,5.5z"/>
	<path fill="#231F20" d="M107,47.3L24.3,2.9c-4.6-2.5-8.9-3.3-12.6-2.7l71.3,71L107,47.3z"/>
	<path fill="#231F20" d="M116.2,104.1l23.9-12.9c13.4-7.2,13.4-19,0-26.1L116,52.1L90,78L116.2,104.1z"/>
</g>
</svg>
