<?xml version="1.0" encoding="utf-8"?>
<!-- Generator: Adobe Illustrator 18.0.0, SVG Export Plug-In . SVG Version: 6.00 Build 0)  -->
<!DOCTYPE svg PUBLIC "-//W3C//DTD SVG 1.1//EN" "http://www.w3.org/Graphics/SVG/1.1/DTD/svg11.dtd">
<svg version="1.1" id="Layer_2" xmlns="http://www.w3.org/2000/svg" xmlns:xlink="http://www.w3.org/1999/xlink" x="0px" y="0px"
	 viewBox="0 0 447.3 265.4" style="enable-background:new 0 0 447.3 265.4;" xml:space="preserve">
<path style="fill-rule:evenodd;clip-rule:evenodd;fill:none;stroke:#000000;stroke-width:24;stroke-miterlimit:10;" d="M403.5,89.1
	c-11.4-10.2-23.5-19.6-35.4-29.3c-13.8-11.2-29.4-18.1-47.5-18.6c-1.7,0-3.6-1.4-5-2.7c-6.1-5.7-11.8-11.8-18-17.3
	c-17.3-15.5-43.9-10.9-55.2,9.4c-0.8,1.4-1.6,2.7-2.4,4.2c-11.1-6.2-21.7-6.3-32.9-0.3c-0.6-1.1-1-1.8-1.4-2.5
	c-12.6-22.6-38.9-26.8-57.8-9.2c-5.6,5.2-10.9,10.8-16.5,16c-1.4,1.3-3.7,2.3-5.6,2.4c-15.6,0.8-29.7,5.7-42,15.3
	c-13.4,10.5-26.8,21-39.6,32.1c-26.8,23.3-36.4,53.4-30.4,87.8c7.5,42.9,45.5,75.6,87.3,76.7c46.9,1.2,85.3-27.3,96.4-71.7
	c0.5-2,1-4.1,1.6-6.2c25.3,8.1,27.4,8,49-0.6c0.4,1.3,0.9,2.5,1.1,3.8c10.9,51.4,61.2,84.3,112.3,72.4c36.7-8.5,61.1-31.6,70.4-68.2
	C441.2,146.4,431.8,114.5,403.5,89.1z M108.7,222.5c-36.5,0.6-65.2-26.3-65.9-61.9c-0.7-35.4,27.1-63.9,62.8-64.5
	c33.9-0.6,63.1,27.5,63.6,61.2C169.9,192.6,142.7,221.9,108.7,222.5z M339.4,222.5c-34.1-0.4-61.8-29.1-61.6-63.8
	c0.3-35,28.7-63,63.7-62.7c35.3,0.3,63.1,28.7,62.8,64.1C404.1,195.3,375.4,222.9,339.4,222.5z"/>
</svg>
