<?xml version="1.0" encoding="utf-8"?>
<!-- Generator: Adobe Illustrator 18.0.0, SVG Export Plug-In . SVG Version: 6.00 Build 0)  -->
<!DOCTYPE svg PUBLIC "-//W3C//DTD SVG 1.1//EN" "http://www.w3.org/Graphics/SVG/1.1/DTD/svg11.dtd">
<svg version="1.1" id="Layer_4" xmlns="http://www.w3.org/2000/svg" xmlns:xlink="http://www.w3.org/1999/xlink" x="0px" y="0px"
	 viewBox="0 0 142.4 124.6" enable-background="new 0 0 142.4 124.6" xml:space="preserve">
<path display="none" fill="none" stroke="#231F20" stroke-miterlimit="10" d="M556.2,157.3c0,5.5-4.5,10-10,10H-45.5
	c-5.5,0-10-4.5-10-10V-39.6c0-5.5,4.5-10,10-10h591.7c5.5,0,10,4.5,10,10V157.3z"/>
<g>
	<polygon fill="#231F20" points="0,57.9 64.6,57.9 64.6,9.7 0,17.8 	"/>
	<polygon fill="#231F20" points="64.6,66.7 0,66.7 0,106.8 64.6,114.9 	"/>
	<polygon fill="#231F20" points="73.4,66.7 73.4,115.9 142.4,124.6 142.4,66.7 	"/>
	<polygon fill="#231F20" points="73.4,57.9 142.4,57.9 142.4,0 73.4,8.6 	"/>
</g>
<text transform="matrix(1 0 0 1 178.0889 21.5928)" display="none" font-family="'Roboto-Regular'" font-size="24.61">Download on the</text>
<text transform="matrix(1 0 0 1 178.0894 90.9507)" display="none" font-family="'Roboto-Regular'" font-size="48">Windows Store</text>
</svg>
