<?xml version="1.0" encoding="utf-8"?>
<!-- Generator: Adobe Illustrator 18.0.0, SVG Export Plug-In . SVG Version: 6.00 Build 0)  -->
<!DOCTYPE svg PUBLIC "-//W3C//DTD SVG 1.1//EN" "http://www.w3.org/Graphics/SVG/1.1/DTD/svg11.dtd">
<svg version="1.1" id="Layer_1" xmlns="http://www.w3.org/2000/svg" xmlns:xlink="http://www.w3.org/1999/xlink" x="0px" y="0px"
	 viewBox="15.5 16.5 478 478" enable-background="new 15.5 16.5 478 478" xml:space="preserve">
<g id="instagram">
	<path fill="#FFFFFF" d="M254.5,16.5c-132,0-239,107-239,239s107,239,239,239s239-107,239-239S386.5,16.5,254.5,16.5z M412.9,413.9
		c-42.3,42.3-98.6,65.6-158.4,65.6s-116.1-23.3-158.4-65.6c-42.3-42.3-65.6-98.6-65.6-158.4S53.8,139.4,96.1,97.1
		s98.6-65.6,158.4-65.6s116.1,23.3,158.4,65.6c42.3,42.3,65.6,98.6,65.6,158.4S455.2,371.6,412.9,413.9z"/>
	<path fill="#FFFFFF" d="M171.9,142.5h168c16,0,28.6,12.6,28.6,28.6v168c0,16-12.7,29.4-28.6,29.4h-168c-16,0-29.4-13.5-29.4-29.4
		v-168C142.5,155.1,155.9,142.5,171.9,142.5L171.9,142.5z M307.5,167.5c-5.6,0-10,4.2-10,9.8v24.4c0,5.6,4.4,9.8,10,9.8h25.5
		c5.6,0,10.4-4.2,10.4-9.8v-24.4c0-5.6-4.8-9.8-10.4-9.8H307.5L307.5,167.5z M343.5,237.5h-20.1c1.9,6,2.9,12.7,2.9,19.5
		c0,37.6-31.5,68.1-70.3,68.1c-38.8,0-70.3-30.5-70.3-68.1c0-6.7,1-13.5,2.9-19.5h-21.2v95.6c0,4.9,4.5,9.4,9.5,9.4h157.4
		c4.9,0,9.1-4.4,9.1-9.4V237.5L343.5,237.5z M256.1,210.6c-25.1,0-45.4,19.7-45.4,44c0,24.3,20.3,44,45.4,44
		c25.1,0,45.4-19.7,45.4-44C301.5,230.3,281.2,210.6,256.1,210.6z"/>
</g>
</svg>
